<?xml version="1.0" encoding="utf-8"?>
<!-- Generator: Adobe Illustrator 26.5.3, SVG Export Plug-In . SVG Version: 6.00 Build 0)  -->
<svg version="1.1" id="Layer_1" xmlns="http://www.w3.org/2000/svg" xmlns:xlink="http://www.w3.org/1999/xlink" x="0px" y="0px"
	 viewBox="0 0 500 500" style="enable-background:new 0 0 500 500;" xml:space="preserve">
<style type="text/css">
	.st0{display:none;}
	.st1{fill-rule:evenodd;clip-rule:evenodd;fill:#E9EFFA;}
	.st2{fill-rule:evenodd;clip-rule:evenodd;fill:#C0CCDB;}
	.st3{display:none;fill-rule:evenodd;clip-rule:evenodd;fill:#B6E0F2;}
	.st4{fill:none;stroke:#414547;stroke-width:2;stroke-linecap:round;stroke-linejoin:round;}
	.st5{display:none;fill:none;stroke:#414547;stroke-width:2;stroke-linecap:round;stroke-linejoin:round;}
	.st6{display:none;fill-rule:evenodd;clip-rule:evenodd;fill:#FFFFFF;}
</style>
<g id="SVGRepo_bgCarrier" class="st0">
</g>
<g id="SVGRepo_tracerCarrier" class="st0">
</g>
<g id="SVGRepo_iconCarrier">
	<g id="General">
		<g id="SLICES-64px" transform="translate(-90.000000, -300.000000)">
		</g>
		<g id="ICONS" transform="translate(-85.000000, -295.000000)">
			<g id="com-laptop-code" transform="translate(88.000000, 308.000000)">
				<path class="st1" d="M431.79,87.19H62.85c-14.55,0-26.35,11.8-26.35,26.35v254.75h421.65V113.54
					C458.15,98.99,446.35,87.19,431.79,87.19z M443.86,352.36c0,1.57-0.6,2.76-1.5,3.56c-0.8,0.86-1.97,1.44-3.5,1.44H62.44
					c-2.96,1.23-7.15-0.24-7.15-4.4V108.9c0-3.14,2.38-4.75,4.81-4.82c0.42-0.11,0.88-0.18,1.38-0.18h377.38
					c3.57,0,5.16,3.07,4.77,5.8c0.15,0.47,0.23,1,0.23,1.58V352.36z"/>
				<path id="Fill-647" class="st2" d="M493.29,368.29v26.35c0,14.55-11.8,26.35-26.35,26.35H27.71c-14.55,0-26.35-11.8-26.35-26.35
					v-26.35H493.29z"/>
				<polygon id="Fill-648" class="st3" points="71.63,333.16 423.01,333.16 423.01,122.33 71.63,122.33 				"/>
				<polygon id="Stroke-651" class="st3" points="71.63,333.16 423.01,333.16 423.01,122.33 71.63,122.33 				"/>
				<path id="Stroke-649" class="st4" d="M458.15,368.29V113.54c0-14.55-11.8-26.35-26.35-26.35H62.85
					c-14.55,0-26.35,11.8-26.35,26.35v254.75"/>
				<path id="Stroke-650" class="st4" d="M493.29,368.29v26.35c0,14.55-11.8,26.35-26.35,26.35H27.71
					c-14.55,0-26.35-11.8-26.35-26.35v-26.35H493.29z"/>
				<polyline id="Stroke-652" class="st5" points="194.61,183.82 141.91,227.74 194.61,271.66 				"/>
				<path id="Stroke-653" class="st5" d="M300.03,183.82L300.03,183.82c27.43,22.86,27.43,64.99,0,87.84l0,0"/>
				<path id="Stroke-654" class="st5" d="M229.75,298.02l35.14-140.55"/>
			</g>
		</g>
	</g>
	<rect x="55" y="114" class="st6" width="389.83" height="254"/>
</g>
</svg>
