<?xml version="1.0" encoding="utf-8"?>
<!-- Generator: Adobe Illustrator 26.5.3, SVG Export Plug-In . SVG Version: 6.00 Build 0)  -->
<svg version="1.1" xmlns="http://www.w3.org/2000/svg" xmlns:xlink="http://www.w3.org/1999/xlink" x="0px" y="0px"
	 viewBox="0 0 500 500" style="enable-background:new 0 0 500 500;" xml:space="preserve">
<style type="text/css">
	.st0{fill:#2D2D33;}
	.st1{fill:#1E1F21;}
	.st2{fill:#121313;}
	.st3{display:none;}
	.st4{display:inline;fill:url(#SVGID_1_);}
	.st5{display:inline;opacity:0.2;fill:#F4F4F5;enable-background:new    ;}
	.st6{display:inline;opacity:0.4;}
	.st7{fill:#F4F4F5;}
	.st8{display:inline;}
	.st9{opacity:0.3;fill:#F4F4F5;enable-background:new    ;}
	.st10{opacity:0.1;fill:#F4F4F5;enable-background:new    ;}
</style>
<g id="Layer_2">
	<path class="st0" d="M376.23,59.32c0,0,0,0,0-0.06c-1.48-7.2-7.26-12.99-14.47-14.47c-1.24-0.3-2.48-0.41-3.78-0.41H174.35
		c-10.27,0-18.66,8.44-18.66,18.72v385.68c0,1.18,0.12,2.36,0.35,3.48c1.42,7.5,7.38,13.52,14.88,14.88
		c1.12,0.24,2.24,0.35,3.42,0.35h183.63c10.27,0,18.66-8.44,18.66-18.72V63.1C376.64,61.8,376.52,60.56,376.23,59.32z
		 M362.24,354.23v0.41v43.73H170.1v-43.73v-0.41V93.96h192.14V354.23z"/>
</g>
<g id="Layer_1">
	<g>
		<g>
			<path class="st1" d="M294.57,79.73h-56.8c-2.35,0-4.27-1.92-4.27-4.27l0,0c0-2.35,1.92-4.27,4.27-4.27h56.8
				c2.35,0,4.27,1.92,4.27,4.27l0,0C298.84,77.8,296.92,79.73,294.57,79.73z"/>
			<path class="st2" d="M298.69,73.77c-0.71-0.58-1.61-0.93-2.6-0.93h-57.05c-2.28,0-4.15,1.86-4.15,4.15v0.25
				c0,0.55,0.12,1.08,0.32,1.57c-0.95-0.75-1.56-1.93-1.56-3.23v-0.25c0-2.29,1.87-4.15,4.15-4.15h57.05
				C296.58,71.18,298.07,72.25,298.69,73.77z"/>
			<circle class="st1" cx="266.17" cy="435.85" r="16.97"/>
			<path class="st2" d="M281.04,425.31c-2.82-2.21-6.37-3.53-10.23-3.53c-9.17,0-16.61,7.44-16.61,16.62
				c0,3.85,1.31,7.39,3.51,10.21c-3.9-3.04-6.41-7.78-6.41-13.1c0-9.18,7.44-16.62,16.62-16.62
				C273.25,418.89,278,421.4,281.04,425.31z"/>
			<g class="st3">
				
					<linearGradient id="SVGID_1_" gradientUnits="userSpaceOnUse" x1="266.1663" y1="98.6174" x2="266.1663" y2="403.0408" gradientTransform="matrix(1 0 0 -1 0 502)">
					<stop  offset="0.1304" style="stop-color:#A9DBE5"/>
					<stop  offset="1" style="stop-color:#A9DBE5"/>
				</linearGradient>
				<rect x="170.1" y="98.96" class="st4" width="192.14" height="304.42"/>
				<rect x="170.1" y="359.65" class="st5" width="192.14" height="43.73"/>
				<rect x="170.1" y="359.23" class="st5" width="192.14" height="0.41"/>
				<rect x="170.1" y="359.23" class="st5" width="192.14" height="0.41"/>
				<g class="st6">
					<rect x="196.19" y="149.33" class="st7" width="142.14" height="65.29"/>
					<polygon class="st7" points="261.49,231.97 196.19,231.97 196.19,226.19 278.04,226.19 					"/>
					<polygon class="st7" points="280.52,131.98 231.72,131.98 231.72,126.19 297.08,126.19 					"/>
					<polygon class="st7" points="326.05,255.94 196.19,255.94 196.19,250.16 342.61,250.16 					"/>
					<polygon class="st7" points="326.05,279.91 196.19,279.91 196.19,267.51 342.61,267.51 					"/>
					<polygon class="st7" points="326.05,297.26 196.19,297.26 196.19,291.48 342.61,291.48 					"/>
					<polygon class="st7" points="326.05,321.23 196.19,321.23 196.19,314.62 342.61,314.62 					"/>
					<polygon class="st7" points="307.84,338.58 196.19,338.58 196.19,332.8 324.4,332.8 					"/>
					<path class="st7" d="M207.89,114.31l12,11.14c0.72,0.66,0.72,1.8,0,2.46l-12,11.14c-0.64,0.6-1.64,0.6-2.28,0l-12-11.14
						c-0.72-0.66-0.72-1.8,0-2.46l12-11.14C206.25,113.71,207.25,113.71,207.89,114.31z"/>
					<g>
						<polygon class="st7" points="322.71,109.05 325.61,111.73 322.71,114.42 319.82,111.73 						"/>
						<polygon class="st7" points="332.08,109.05 334.97,111.73 332.08,114.42 329.18,111.73 						"/>
						<polygon class="st7" points="313.35,109.05 316.24,111.73 313.35,114.42 310.45,111.73 						"/>
					</g>
				</g>
				<g class="st8">
					<path class="st9" d="M194.67,398L194.67,398c-8.54,0-15.52-6.98-15.52-15.52l0,0c0-8.54,6.98-15.52,15.52-15.52l0,0
						c8.54,0,15.52,6.98,15.52,15.52l0,0C210.19,391.02,203.2,398,194.67,398z"/>
					<path class="st9" d="M242.33,398L242.33,398c-8.54,0-15.52-6.98-15.52-15.52l0,0c0-8.54,6.98-15.52,15.52-15.52l0,0
						c8.54,0,15.52,6.98,15.52,15.52l0,0C257.85,391.02,250.87,398,242.33,398z"/>
					<path class="st9" d="M290,398L290,398c-8.54,0-15.52-6.98-15.52-15.52l0,0c0-8.54,6.98-15.52,15.52-15.52l0,0
						c8.54,0,15.52,6.98,15.52,15.52l0,0C305.52,391.02,298.54,398,290,398z"/>
					<path class="st9" d="M337.67,398L337.67,398c-8.54,0-15.52-6.98-15.52-15.52l0,0c0-8.54,6.98-15.52,15.52-15.52l0,0
						c8.54,0,15.52,6.98,15.52,15.52l0,0C353.19,391.02,346.2,398,337.67,398z"/>
				</g>
			</g>
		</g>
		<path class="st10" d="M156.11,59.32c0,0,0,0,0-0.06c1.48-7.2,7.26-12.99,14.47-14.47c1.24-0.3,2.48-0.41,3.78-0.41h91.82V467.5
			h-91.82c-10.27,0-18.66-8.44-18.66-18.72V63.1C155.69,61.8,155.81,60.56,156.11,59.32z"/>
	</g>
</g>
</svg>
